<mxfile host="app.diagrams.net" agent="Mozilla/5.0 (Windows NT 10.0; Win64; x64) AppleWebKit/537.36 (KHTML, like Gecko) Chrome/130.0.0.0 Safari/537.36" version="24.8.4">
  <diagram name="Page-1" id="UJWXzUGF7BPBQ5PaJ_mi">
    <mxGraphModel dx="6588" dy="3484" grid="1" gridSize="10" guides="1" tooltips="1" connect="1" arrows="1" fold="1" page="1" pageScale="1" pageWidth="850" pageHeight="1100" math="0" shadow="0">
      <root>
        <mxCell id="0" />
        <mxCell id="1" parent="0" />
        <mxCell id="jfcpHhcAErlLvr96TmVy-13" value="" style="html=1;verticalAlign=bottom;endArrow=none;curved=0;rounded=0;startArrow=none;startFill=0;endFill=0;dashed=1;exitX=0.171;exitY=0.996;exitDx=0;exitDy=0;exitPerimeter=0;" parent="1" source="jfcpHhcAErlLvr96TmVy-1" edge="1">
          <mxGeometry width="80" relative="1" as="geometry">
            <mxPoint x="1698.42" y="1787" as="sourcePoint" />
            <mxPoint x="1695" y="1237" as="targetPoint" />
            <mxPoint as="offset" />
          </mxGeometry>
        </mxCell>
        <mxCell id="cOvkD6G6tHNwfgcd8dOZ-1" value="Admin" style="shape=umlActor;verticalLabelPosition=bottom;verticalAlign=top;html=1;" parent="1" vertex="1">
          <mxGeometry x="80" y="360" width="30" height="60" as="geometry" />
        </mxCell>
        <mxCell id="cOvkD6G6tHNwfgcd8dOZ-2" value="" style="endArrow=block;startArrow=none;endFill=0;startFill=0;endSize=8;html=1;verticalAlign=bottom;dashed=1;labelBackgroundColor=none;rounded=0;" parent="1" edge="1">
          <mxGeometry width="160" relative="1" as="geometry">
            <mxPoint x="110" y="390" as="sourcePoint" />
            <mxPoint x="270" y="390" as="targetPoint" />
          </mxGeometry>
        </mxCell>
        <mxCell id="CjhidyCiuxUKzG1xqowo-3" value="Criar promoção" style="ellipse;" parent="1" vertex="1">
          <mxGeometry x="270" y="320" width="190" height="150" as="geometry" />
        </mxCell>
        <mxCell id="CjhidyCiuxUKzG1xqowo-5" value="Promoção generica" style="ellipse;" parent="1" vertex="1">
          <mxGeometry x="1060" y="170" width="190" height="150" as="geometry" />
        </mxCell>
        <mxCell id="CjhidyCiuxUKzG1xqowo-6" value="Tipo de promoção" style="ellipse;" parent="1" vertex="1">
          <mxGeometry x="700" y="330" width="190" height="150" as="geometry" />
        </mxCell>
        <mxCell id="CjhidyCiuxUKzG1xqowo-7" value="&amp;lt;&amp;lt;include&amp;gt;&amp;gt;" style="html=1;verticalAlign=bottom;labelBackgroundColor=none;endArrow=open;endFill=0;dashed=1;rounded=0;entryX=-0.011;entryY=0.447;entryDx=0;entryDy=0;entryPerimeter=0;" parent="1" target="CjhidyCiuxUKzG1xqowo-6" edge="1">
          <mxGeometry width="160" relative="1" as="geometry">
            <mxPoint x="460" y="400" as="sourcePoint" />
            <mxPoint x="620" y="400" as="targetPoint" />
          </mxGeometry>
        </mxCell>
        <mxCell id="CjhidyCiuxUKzG1xqowo-8" value="&amp;lt;&amp;lt;extend&amp;gt;&amp;gt;" style="html=1;verticalAlign=bottom;labelBackgroundColor=none;endArrow=open;endFill=0;dashed=1;rounded=0;entryX=0.901;entryY=0.22;entryDx=0;entryDy=0;entryPerimeter=0;exitX=-0.011;exitY=0.559;exitDx=0;exitDy=0;exitPerimeter=0;" parent="1" source="CjhidyCiuxUKzG1xqowo-5" target="CjhidyCiuxUKzG1xqowo-6" edge="1">
          <mxGeometry width="160" relative="1" as="geometry">
            <mxPoint x="820" y="285" as="sourcePoint" />
            <mxPoint x="1010" y="170" as="targetPoint" />
          </mxGeometry>
        </mxCell>
        <mxCell id="CjhidyCiuxUKzG1xqowo-9" value="Promoção por zona" style="ellipse;" parent="1" vertex="1">
          <mxGeometry x="1060" y="520" width="190" height="150" as="geometry" />
        </mxCell>
        <mxCell id="CjhidyCiuxUKzG1xqowo-10" value="&amp;lt;&amp;lt;extend&amp;gt;&amp;gt;" style="html=1;verticalAlign=bottom;labelBackgroundColor=none;endArrow=open;endFill=0;dashed=1;rounded=0;entryX=1;entryY=1;entryDx=0;entryDy=0;exitX=0;exitY=0.5;exitDx=0;exitDy=0;" parent="1" source="CjhidyCiuxUKzG1xqowo-9" target="CjhidyCiuxUKzG1xqowo-6" edge="1">
          <mxGeometry width="160" relative="1" as="geometry">
            <mxPoint x="850" y="518.0999999999999" as="sourcePoint" />
            <mxPoint x="1027.98" y="669.9999999999998" as="targetPoint" />
          </mxGeometry>
        </mxCell>
        <mxCell id="wCIRYFEJJzzGUw2fTRDs-5" value="Configurar dados da promoção" style="ellipse;" parent="1" vertex="1">
          <mxGeometry x="1540" y="340" width="190" height="150" as="geometry" />
        </mxCell>
        <mxCell id="wCIRYFEJJzzGUw2fTRDs-6" value="Perguntar visibilidade&#xa;da promoção" style="ellipse;" parent="1" vertex="1">
          <mxGeometry x="2010" y="340" width="190" height="150" as="geometry" />
        </mxCell>
        <mxCell id="wCIRYFEJJzzGUw2fTRDs-7" value="&amp;lt;&amp;lt;include&amp;gt;&amp;gt;" style="html=1;verticalAlign=bottom;labelBackgroundColor=none;endArrow=open;endFill=0;dashed=1;rounded=0;entryX=0;entryY=1;entryDx=0;entryDy=0;" parent="1" target="wCIRYFEJJzzGUw2fTRDs-5" edge="1">
          <mxGeometry width="160" relative="1" as="geometry">
            <mxPoint x="1250" y="596.5" as="sourcePoint" />
            <mxPoint x="1488" y="593.5" as="targetPoint" />
          </mxGeometry>
        </mxCell>
        <mxCell id="wCIRYFEJJzzGUw2fTRDs-8" value="&amp;lt;&amp;lt;include&amp;gt;&amp;gt;" style="html=1;verticalAlign=bottom;labelBackgroundColor=none;endArrow=open;endFill=0;dashed=1;rounded=0;" parent="1" target="wCIRYFEJJzzGUw2fTRDs-5" edge="1">
          <mxGeometry width="160" relative="1" as="geometry">
            <mxPoint x="1250" y="246.5" as="sourcePoint" />
            <mxPoint x="1488" y="243.5" as="targetPoint" />
          </mxGeometry>
        </mxCell>
        <mxCell id="wCIRYFEJJzzGUw2fTRDs-9" value="&amp;lt;&amp;lt;include&amp;gt;&amp;gt;" style="html=1;verticalAlign=bottom;labelBackgroundColor=none;endArrow=open;endFill=0;dashed=1;rounded=0;entryX=0;entryY=0.5;entryDx=0;entryDy=0;" parent="1" target="wCIRYFEJJzzGUw2fTRDs-6" edge="1">
          <mxGeometry width="160" relative="1" as="geometry">
            <mxPoint x="1730" y="420" as="sourcePoint" />
            <mxPoint x="2048" y="291.5" as="targetPoint" />
          </mxGeometry>
        </mxCell>
        <mxCell id="wCIRYFEJJzzGUw2fTRDs-10" value="Não visivel" style="ellipse;" parent="1" vertex="1">
          <mxGeometry x="2230" y="620" width="190" height="150" as="geometry" />
        </mxCell>
        <mxCell id="wCIRYFEJJzzGUw2fTRDs-11" value="Visivel" style="ellipse;" parent="1" vertex="1">
          <mxGeometry x="2430" y="350" width="190" height="150" as="geometry" />
        </mxCell>
        <mxCell id="wCIRYFEJJzzGUw2fTRDs-12" value="&amp;lt;&amp;lt;extend&amp;gt;&amp;gt;" style="html=1;verticalAlign=bottom;labelBackgroundColor=none;endArrow=open;endFill=0;dashed=1;rounded=0;" parent="1" source="wCIRYFEJJzzGUw2fTRDs-10" target="wCIRYFEJJzzGUw2fTRDs-6" edge="1">
          <mxGeometry width="160" relative="1" as="geometry">
            <mxPoint x="1994.0000000000002" y="550" as="sourcePoint" />
            <mxPoint x="2124.8899999999994" y="695.75" as="targetPoint" />
          </mxGeometry>
        </mxCell>
        <mxCell id="wCIRYFEJJzzGUw2fTRDs-13" value="&amp;lt;&amp;lt;extend&amp;gt;&amp;gt;" style="html=1;verticalAlign=bottom;labelBackgroundColor=none;endArrow=open;endFill=0;dashed=1;rounded=0;entryX=-0.011;entryY=0.448;entryDx=0;entryDy=0;entryPerimeter=0;exitX=1;exitY=0.5;exitDx=0;exitDy=0;" parent="1" source="wCIRYFEJJzzGUw2fTRDs-6" target="wCIRYFEJJzzGUw2fTRDs-11" edge="1">
          <mxGeometry width="160" relative="1" as="geometry">
            <mxPoint x="2200" y="404" as="sourcePoint" />
            <mxPoint x="2331" y="550" as="targetPoint" />
          </mxGeometry>
        </mxCell>
        <mxCell id="wCIRYFEJJzzGUw2fTRDs-14" value="&amp;lt;&amp;lt;include&amp;gt;&amp;gt;" style="html=1;verticalAlign=bottom;labelBackgroundColor=none;endArrow=open;endFill=0;dashed=1;rounded=0;" parent="1" edge="1">
          <mxGeometry width="160" relative="1" as="geometry">
            <mxPoint x="2350" y="770" as="sourcePoint" />
            <mxPoint x="2380" y="870" as="targetPoint" />
          </mxGeometry>
        </mxCell>
        <mxCell id="wCIRYFEJJzzGUw2fTRDs-15" value="Guardar promoção" style="ellipse;" parent="1" vertex="1">
          <mxGeometry x="2300" y="870" width="190" height="150" as="geometry" />
        </mxCell>
        <mxCell id="wCIRYFEJJzzGUw2fTRDs-16" value="&amp;lt;&amp;lt;include&amp;gt;&amp;gt;" style="html=1;verticalAlign=bottom;labelBackgroundColor=none;endArrow=open;endFill=0;dashed=1;rounded=0;" parent="1" edge="1">
          <mxGeometry width="160" relative="1" as="geometry">
            <mxPoint x="2620" y="420" as="sourcePoint" />
            <mxPoint x="2760" y="420" as="targetPoint" />
          </mxGeometry>
        </mxCell>
        <mxCell id="wCIRYFEJJzzGUw2fTRDs-17" value="Apresentar promoção" style="ellipse;" parent="1" vertex="1">
          <mxGeometry x="2760" y="350" width="190" height="150" as="geometry" />
        </mxCell>
        <mxCell id="wCIRYFEJJzzGUw2fTRDs-18" value="&lt;h1 style=&quot;margin-top: 0px;&quot;&gt;&lt;span style=&quot;font-size: 18px; background-color: initial;&quot;&gt;Fluxo Principal (Sucesso)&lt;/span&gt;&lt;/h1&gt;&lt;div style=&quot;&quot;&gt;&lt;div style=&quot;&quot;&gt;&lt;font style=&quot;font-size: 15px;&quot;&gt;&lt;b style=&quot;&quot;&gt;Objetivo:&amp;nbsp;&lt;/b&gt;&lt;/font&gt;&lt;span style=&quot;background-color: initial;&quot;&gt;&lt;font style=&quot;font-size: 15px;&quot;&gt;Criar uma promoção com sucesso.&lt;/font&gt;&lt;/span&gt;&lt;/div&gt;&lt;div style=&quot;&quot;&gt;&lt;span style=&quot;background-color: initial;&quot;&gt;&lt;font style=&quot;font-size: 15px;&quot;&gt;&lt;br&gt;&lt;/font&gt;&lt;/span&gt;&lt;/div&gt;&lt;div style=&quot;font-size: 6px;&quot;&gt;&lt;font style=&quot;font-size: 6px;&quot;&gt;&lt;br&gt;&lt;/font&gt;&lt;/div&gt;&lt;div style=&quot;font-size: 14px;&quot;&gt;&lt;font style=&quot;font-size: 14px;&quot;&gt;&lt;b&gt;Ponto 1&lt;/b&gt;&amp;nbsp;- Admin acede à página de criação de promoções.&lt;/font&gt;&lt;/div&gt;&lt;div style=&quot;font-size: 6px;&quot;&gt;&lt;font style=&quot;font-size: 6px;&quot;&gt;&lt;br&gt;&lt;/font&gt;&lt;/div&gt;&lt;div style=&quot;font-size: 14px;&quot;&gt;&lt;font style=&quot;font-size: 14px;&quot;&gt;&lt;b&gt;Ponto 2&lt;/b&gt;&amp;nbsp;- Admin seleciona o tipo de promoção:&lt;/font&gt;&lt;/div&gt;&lt;div style=&quot;font-size: 14px;&quot;&gt;&lt;font style=&quot;font-size: 14px;&quot;&gt;&lt;span style=&quot;white-space: pre;&quot;&gt;&#x9;&lt;/span&gt;&lt;b&gt;Ponto 2.1&lt;/b&gt; - Generica&lt;br&gt;&lt;/font&gt;&lt;/div&gt;&lt;div style=&quot;font-size: 14px;&quot;&gt;&lt;font style=&quot;font-size: 14px;&quot;&gt;&lt;span style=&quot;white-space: pre;&quot;&gt;&#x9;&lt;/span&gt;&lt;b&gt;Ponto 2.2 &lt;/b&gt;- Por zona&lt;br&gt;&lt;/font&gt;&lt;/div&gt;&lt;div style=&quot;font-size: 6px;&quot;&gt;&lt;font style=&quot;font-size: 6px;&quot;&gt;&lt;br&gt;&lt;/font&gt;&lt;/div&gt;&lt;/div&gt;&lt;div style=&quot;font-size: 14px;&quot;&gt;&lt;div style=&quot;&quot;&gt;&lt;font style=&quot;font-size: 14px;&quot;&gt;&lt;b&gt;Ponto 3&lt;/b&gt;&amp;nbsp;-&amp;nbsp;&lt;/font&gt;&lt;span style=&quot;background-color: initial;&quot;&gt;Sistema apresenta campos para configuração da promoção.&lt;/span&gt;&lt;/div&gt;&lt;div style=&quot;&quot;&gt;&lt;span style=&quot;background-color: initial;&quot;&gt;&lt;br&gt;&lt;/span&gt;&lt;/div&gt;&lt;div style=&quot;&quot;&gt;&lt;font style=&quot;font-size: 14px;&quot;&gt;&lt;b style=&quot;background-color: initial;&quot;&gt;Ponto 4&lt;/b&gt;&amp;nbsp;- Admin configura os dados da promoção (título, descrição, validade, etc.).&lt;/font&gt;&lt;/div&gt;&lt;div style=&quot;font-size: 6px;&quot;&gt;&lt;font style=&quot;font-size: 6px;&quot;&gt;&lt;br&gt;&lt;/font&gt;&lt;/div&gt;&lt;div style=&quot;font-size: 4px;&quot;&gt;&lt;font style=&quot;font-size: 14px;&quot;&gt;&lt;b&gt;Ponto 5&lt;/b&gt;&amp;nbsp;- Sistema verifica e valida as informações inseridas.&lt;/font&gt;&lt;/div&gt;&lt;div style=&quot;font-size: 6px;&quot;&gt;&lt;font style=&quot;font-size: 6px;&quot;&gt;&lt;br&gt;&lt;/font&gt;&lt;/div&gt;&lt;div style=&quot;&quot;&gt;&lt;font style=&quot;font-size: 14px;&quot;&gt;&lt;b&gt;Ponto 6&amp;nbsp;&lt;/b&gt;- Admin define a visibilidade da promoção (visível ou não visível).&lt;/font&gt;&lt;/div&gt;&lt;div style=&quot;font-size: 15px;&quot;&gt;&lt;br&gt;&lt;/div&gt;&lt;div style=&quot;font-size: 15px;&quot;&gt;&lt;div&gt;&lt;b&gt;Fim: &lt;/b&gt;A promoção é criada e finalizada conforme as especificações.&lt;/div&gt;&lt;div&gt;&lt;br&gt;&lt;/div&gt;&lt;/div&gt;&lt;/div&gt;" style="text;html=1;whiteSpace=wrap;overflow=hidden;rounded=0;" parent="1" vertex="1">
          <mxGeometry x="20" y="730" width="430" height="450" as="geometry" />
        </mxCell>
        <mxCell id="wCIRYFEJJzzGUw2fTRDs-19" value="&amp;lt;&amp;lt;extend&amp;gt;&amp;gt;" style="html=1;verticalAlign=bottom;labelBackgroundColor=none;endArrow=open;endFill=0;dashed=1;rounded=0;" parent="1" edge="1">
          <mxGeometry width="160" relative="1" as="geometry">
            <mxPoint x="1650" y="660" as="sourcePoint" />
            <mxPoint x="1650" y="490" as="targetPoint" />
          </mxGeometry>
        </mxCell>
        <mxCell id="wCIRYFEJJzzGUw2fTRDs-20" value="Verifica dados" style="ellipse;" parent="1" vertex="1">
          <mxGeometry x="1560" y="660" width="190" height="150" as="geometry" />
        </mxCell>
        <mxCell id="wCIRYFEJJzzGUw2fTRDs-21" value="&lt;h1 style=&quot;margin-top: 0px; font-size: 18px;&quot;&gt;&lt;font style=&quot;font-size: 18px;&quot;&gt;&lt;span style=&quot;background-color: initial;&quot;&gt;Fluxo Secundario (&lt;/span&gt;Erro de Validação dos Dados da Promoção&lt;span style=&quot;background-color: initial;&quot;&gt;)&lt;/span&gt;&lt;/font&gt;&lt;/h1&gt;&lt;div style=&quot;font-size: 15px;&quot;&gt;&lt;div style=&quot;&quot;&gt;&lt;font style=&quot;font-size: 15px;&quot;&gt;&lt;b style=&quot;&quot;&gt;Objetivo:&amp;nbsp;&lt;/b&gt;&lt;/font&gt;&lt;span style=&quot;background-color: initial;&quot;&gt;Tratar erro ao validar informações da promoção.&lt;/span&gt;&lt;/div&gt;&lt;div style=&quot;&quot;&gt;&lt;span style=&quot;background-color: initial;&quot;&gt;&lt;br&gt;&lt;/span&gt;&lt;/div&gt;&lt;div style=&quot;font-size: 14px;&quot;&gt;&lt;font style=&quot;font-size: 14px;&quot;&gt;&lt;b style=&quot;&quot;&gt;Ponto 1&lt;/b&gt; - Admin preenche os dados da promoção (ex: título, descrição, validade, etc.).&lt;/font&gt;&lt;/div&gt;&lt;div style=&quot;font-size: 6px;&quot;&gt;&lt;font style=&quot;font-size: 6px;&quot;&gt;&lt;br&gt;&lt;/font&gt;&lt;/div&gt;&lt;div style=&quot;font-size: 14px;&quot;&gt;&lt;font style=&quot;font-size: 14px;&quot;&gt;&lt;b&gt;Ponto 2&lt;/b&gt; - Sistema detecta um erro nos dados fornecidos (ex: validade incorreta ou campo obrigatório em falta).&lt;/font&gt;&lt;/div&gt;&lt;div style=&quot;font-size: 6px;&quot;&gt;&lt;font style=&quot;font-size: 6px;&quot;&gt;&lt;br&gt;&lt;/font&gt;&lt;/div&gt;&lt;div style=&quot;font-size: 14px;&quot;&gt;&lt;font style=&quot;font-size: 14px;&quot;&gt;&lt;b&gt;&lt;span style=&quot;white-space: pre;&quot;&gt;&#x9;&lt;/span&gt;Ponto 2.1&lt;/b&gt;&amp;nbsp;- Sistema informa o admin sobre o erro e destaca os &lt;span style=&quot;white-space: pre;&quot;&gt;&#x9;&lt;/span&gt;campos a corrigir.&lt;/font&gt;&lt;/div&gt;&lt;div style=&quot;font-size: 6px;&quot;&gt;&lt;font style=&quot;font-size: 6px;&quot;&gt;&lt;br&gt;&lt;/font&gt;&lt;/div&gt;&lt;/div&gt;&lt;div style=&quot;font-size: 14px;&quot;&gt;&lt;div style=&quot;&quot;&gt;&lt;font style=&quot;font-size: 14px;&quot;&gt;&lt;b&gt;Ponto 3&lt;/b&gt;&amp;nbsp;- Retorna ao ponto 4 do fluxo principal e faz nova verificação&lt;/font&gt;&lt;/div&gt;&lt;div style=&quot;font-size: 15px;&quot;&gt;&lt;div&gt;&lt;br&gt;&lt;/div&gt;&lt;/div&gt;&lt;/div&gt;" style="text;html=1;whiteSpace=wrap;overflow=hidden;rounded=0;" parent="1" vertex="1">
          <mxGeometry x="510" y="735" width="430" height="295" as="geometry" />
        </mxCell>
        <mxCell id="jfcpHhcAErlLvr96TmVy-1" value="Diagrama sequencia" style="shape=umlFrame;whiteSpace=wrap;html=1;pointerEvents=0;recursiveResize=0;container=1;collapsible=0;width=160;" parent="1" vertex="1">
          <mxGeometry x="1470" y="1060" width="1360" height="940" as="geometry" />
        </mxCell>
        <mxCell id="jfcpHhcAErlLvr96TmVy-87" value="" style="html=1;verticalAlign=bottom;endArrow=none;curved=0;rounded=0;startArrow=none;startFill=0;endFill=0;dashed=1;exitX=0.671;exitY=1;exitDx=0;exitDy=0;exitPerimeter=0;" parent="jfcpHhcAErlLvr96TmVy-1" source="jfcpHhcAErlLvr96TmVy-1" target="jfcpHhcAErlLvr96TmVy-86" edge="1">
          <mxGeometry width="80" relative="1" as="geometry">
            <mxPoint x="914" y="1070" as="sourcePoint" />
            <mxPoint x="2386" y="1380" as="targetPoint" />
            <mxPoint as="offset" />
          </mxGeometry>
        </mxCell>
        <mxCell id="jfcpHhcAErlLvr96TmVy-4" value="Pagina criar anuncio" style="shape=umlLifeline;perimeter=lifelinePerimeter;whiteSpace=wrap;html=1;container=1;dropTarget=0;collapsible=0;recursiveResize=0;outlineConnect=0;portConstraint=eastwest;newEdgeStyle={&quot;edgeStyle&quot;:&quot;elbowEdgeStyle&quot;,&quot;elbow&quot;:&quot;vertical&quot;,&quot;curved&quot;:0,&quot;rounded&quot;:0};" parent="jfcpHhcAErlLvr96TmVy-1" vertex="1">
          <mxGeometry x="555" y="110" width="100" height="830" as="geometry" />
        </mxCell>
        <mxCell id="jfcpHhcAErlLvr96TmVy-5" value="" style="html=1;points=[[0,0,0,0,5],[0,1,0,0,-5],[1,0,0,0,5],[1,1,0,0,-5]];perimeter=orthogonalPerimeter;outlineConnect=0;targetShapes=umlLifeline;portConstraint=eastwest;newEdgeStyle={&quot;curved&quot;:0,&quot;rounded&quot;:0};" parent="jfcpHhcAErlLvr96TmVy-4" vertex="1">
          <mxGeometry x="45" y="90" width="10" height="120" as="geometry" />
        </mxCell>
        <mxCell id="jfcpHhcAErlLvr96TmVy-121" value="" style="html=1;points=[[0,0,0,0,5],[0,1,0,0,-5],[1,0,0,0,5],[1,1,0,0,-5]];perimeter=orthogonalPerimeter;outlineConnect=0;targetShapes=umlLifeline;portConstraint=eastwest;newEdgeStyle={&quot;curved&quot;:0,&quot;rounded&quot;:0};" parent="jfcpHhcAErlLvr96TmVy-4" vertex="1">
          <mxGeometry x="45" y="480" width="10" height="53" as="geometry" />
        </mxCell>
        <mxCell id="jfcpHhcAErlLvr96TmVy-7" value="Admin" style="shape=umlActor;verticalLabelPosition=bottom;verticalAlign=top;html=1;" parent="jfcpHhcAErlLvr96TmVy-1" vertex="1">
          <mxGeometry x="211" y="103" width="30" height="60" as="geometry" />
        </mxCell>
        <mxCell id="jfcpHhcAErlLvr96TmVy-8" value="BD" style="strokeWidth=2;html=1;shape=mxgraph.flowchart.database;whiteSpace=wrap;" parent="jfcpHhcAErlLvr96TmVy-1" vertex="1">
          <mxGeometry x="1180" y="106.5" width="53" height="53" as="geometry" />
        </mxCell>
        <mxCell id="jfcpHhcAErlLvr96TmVy-15" value="" style="html=1;points=[[0,0,0,0,5],[0,1,0,0,-5],[1,0,0,0,5],[1,1,0,0,-5]];perimeter=orthogonalPerimeter;outlineConnect=0;targetShapes=umlLifeline;portConstraint=eastwest;newEdgeStyle={&quot;curved&quot;:0,&quot;rounded&quot;:0};" parent="jfcpHhcAErlLvr96TmVy-1" vertex="1">
          <mxGeometry x="221" y="200" width="10" height="90" as="geometry" />
        </mxCell>
        <mxCell id="jfcpHhcAErlLvr96TmVy-17" value="Admin acede a pagina anuncio" style="text;html=1;align=center;verticalAlign=middle;resizable=0;points=[];autosize=1;strokeColor=none;fillColor=none;" parent="jfcpHhcAErlLvr96TmVy-1" vertex="1">
          <mxGeometry x="310" y="170" width="190" height="30" as="geometry" />
        </mxCell>
        <mxCell id="jfcpHhcAErlLvr96TmVy-18" value="Sistema" style="shape=umlActor;verticalLabelPosition=bottom;verticalAlign=top;html=1;" parent="jfcpHhcAErlLvr96TmVy-1" vertex="1">
          <mxGeometry x="900" y="103" width="30" height="60" as="geometry" />
        </mxCell>
        <mxCell id="jfcpHhcAErlLvr96TmVy-19" value="" style="html=1;verticalAlign=bottom;endArrow=none;curved=0;rounded=0;startArrow=none;startFill=0;endFill=0;dashed=1;exitX=0.615;exitY=1.001;exitDx=0;exitDy=0;exitPerimeter=0;" parent="jfcpHhcAErlLvr96TmVy-1" source="jfcpHhcAErlLvr96TmVy-82" edge="1">
          <mxGeometry width="80" relative="1" as="geometry">
            <mxPoint x="916.1199999999999" y="445.1999999999998" as="sourcePoint" />
            <mxPoint x="914" y="170" as="targetPoint" />
            <mxPoint as="offset" />
          </mxGeometry>
        </mxCell>
        <mxCell id="jfcpHhcAErlLvr96TmVy-29" value="Admin escolhe entre generico e por zona e insere dados" style="text;html=1;align=center;verticalAlign=middle;resizable=0;points=[];autosize=1;strokeColor=none;fillColor=none;" parent="jfcpHhcAErlLvr96TmVy-1" vertex="1">
          <mxGeometry x="245" y="259" width="320" height="30" as="geometry" />
        </mxCell>
        <mxCell id="jfcpHhcAErlLvr96TmVy-46" value="Alternativo" style="shape=umlFrame;whiteSpace=wrap;html=1;pointerEvents=0;recursiveResize=0;container=1;collapsible=0;width=170;" parent="jfcpHhcAErlLvr96TmVy-1" vertex="1">
          <mxGeometry x="20" y="330" width="1330" height="590" as="geometry" />
        </mxCell>
        <mxCell id="jfcpHhcAErlLvr96TmVy-110" value="" style="html=1;verticalAlign=bottom;endArrow=none;curved=0;rounded=0;startArrow=none;startFill=0;endFill=0;dashed=1;exitX=0.885;exitY=0.996;exitDx=0;exitDy=0;exitPerimeter=0;" parent="jfcpHhcAErlLvr96TmVy-46" source="jfcpHhcAErlLvr96TmVy-1" edge="1">
          <mxGeometry width="80" relative="1" as="geometry">
            <mxPoint x="1170" y="720" as="sourcePoint" />
            <mxPoint x="1184" y="-172" as="targetPoint" />
            <mxPoint as="offset" />
          </mxGeometry>
        </mxCell>
        <mxCell id="jfcpHhcAErlLvr96TmVy-47" value="Dados incorretos" style="text;html=1;" parent="jfcpHhcAErlLvr96TmVy-46" vertex="1">
          <mxGeometry width="100" height="20" relative="1" as="geometry">
            <mxPoint x="20" y="40" as="offset" />
          </mxGeometry>
        </mxCell>
        <mxCell id="jfcpHhcAErlLvr96TmVy-48" value="Dados corretos" style="line;strokeWidth=1;dashed=1;labelPosition=center;verticalLabelPosition=bottom;align=left;verticalAlign=top;spacingLeft=20;spacingTop=15;html=1;whiteSpace=wrap;" parent="jfcpHhcAErlLvr96TmVy-46" vertex="1">
          <mxGeometry y="125" width="1320" height="10" as="geometry" />
        </mxCell>
        <mxCell id="jfcpHhcAErlLvr96TmVy-50" value="" style="html=1;points=[[0,0,0,0,5],[0,1,0,0,-5],[1,0,0,0,5],[1,1,0,0,-5]];perimeter=orthogonalPerimeter;outlineConnect=0;targetShapes=umlLifeline;portConstraint=eastwest;newEdgeStyle={&quot;curved&quot;:0,&quot;rounded&quot;:0};" parent="jfcpHhcAErlLvr96TmVy-46" vertex="1">
          <mxGeometry x="200" y="20" width="10" height="90" as="geometry" />
        </mxCell>
        <mxCell id="jfcpHhcAErlLvr96TmVy-52" value="" style="html=1;points=[[0,0,0,0,5],[0,1,0,0,-5],[1,0,0,0,5],[1,1,0,0,-5]];perimeter=orthogonalPerimeter;outlineConnect=0;targetShapes=umlLifeline;portConstraint=eastwest;newEdgeStyle={&quot;curved&quot;:0,&quot;rounded&quot;:0};" parent="jfcpHhcAErlLvr96TmVy-46" vertex="1">
          <mxGeometry x="580" y="20" width="10" height="80" as="geometry" />
        </mxCell>
        <mxCell id="jfcpHhcAErlLvr96TmVy-88" value="" style="html=1;verticalAlign=bottom;labelBackgroundColor=none;endArrow=open;endFill=0;dashed=1;rounded=0;" parent="jfcpHhcAErlLvr96TmVy-46" edge="1">
          <mxGeometry width="160" relative="1" as="geometry">
            <mxPoint x="889" y="29.999999999999773" as="sourcePoint" />
            <mxPoint x="590" y="30" as="targetPoint" />
          </mxGeometry>
        </mxCell>
        <mxCell id="jfcpHhcAErlLvr96TmVy-89" value="Envia feedback dados incorretos" style="text;html=1;align=center;verticalAlign=middle;resizable=0;points=[];autosize=1;strokeColor=none;fillColor=none;" parent="jfcpHhcAErlLvr96TmVy-46" vertex="1">
          <mxGeometry x="600" y="8" width="200" height="30" as="geometry" />
        </mxCell>
        <mxCell id="jfcpHhcAErlLvr96TmVy-90" value="" style="html=1;verticalAlign=bottom;labelBackgroundColor=none;endArrow=open;endFill=0;dashed=1;rounded=0;" parent="jfcpHhcAErlLvr96TmVy-46" edge="1">
          <mxGeometry width="160" relative="1" as="geometry">
            <mxPoint x="580" y="50.00000000000023" as="sourcePoint" />
            <mxPoint x="210" y="50" as="targetPoint" />
          </mxGeometry>
        </mxCell>
        <mxCell id="jfcpHhcAErlLvr96TmVy-91" value="Envia feedback dados incorretos" style="text;html=1;align=center;verticalAlign=middle;resizable=0;points=[];autosize=1;strokeColor=none;fillColor=none;" parent="jfcpHhcAErlLvr96TmVy-46" vertex="1">
          <mxGeometry x="280" y="20" width="200" height="30" as="geometry" />
        </mxCell>
        <mxCell id="jfcpHhcAErlLvr96TmVy-92" value="" style="html=1;verticalAlign=bottom;labelBackgroundColor=none;endArrow=open;endFill=0;dashed=1;rounded=0;" parent="jfcpHhcAErlLvr96TmVy-46" edge="1">
          <mxGeometry width="160" relative="1" as="geometry">
            <mxPoint x="210" y="80" as="sourcePoint" />
            <mxPoint x="580" y="80" as="targetPoint" />
          </mxGeometry>
        </mxCell>
        <mxCell id="jfcpHhcAErlLvr96TmVy-93" value="Volta a introduzir dados" style="text;html=1;align=center;verticalAlign=middle;resizable=0;points=[];autosize=1;strokeColor=none;fillColor=none;" parent="jfcpHhcAErlLvr96TmVy-46" vertex="1">
          <mxGeometry x="300" y="50" width="150" height="30" as="geometry" />
        </mxCell>
        <mxCell id="jfcpHhcAErlLvr96TmVy-94" value="" style="html=1;verticalAlign=bottom;labelBackgroundColor=none;endArrow=open;endFill=0;dashed=1;rounded=0;flowAnimation=0;" parent="jfcpHhcAErlLvr96TmVy-46" target="jfcpHhcAErlLvr96TmVy-86" edge="1">
          <mxGeometry width="160" relative="1" as="geometry">
            <mxPoint x="590" y="100" as="sourcePoint" />
            <mxPoint x="960" y="100" as="targetPoint" />
          </mxGeometry>
        </mxCell>
        <mxCell id="jfcpHhcAErlLvr96TmVy-95" value="Sistema verifica dados e visibilidade" style="text;html=1;align=center;verticalAlign=middle;resizable=0;points=[];autosize=1;strokeColor=none;fillColor=none;" parent="jfcpHhcAErlLvr96TmVy-46" vertex="1">
          <mxGeometry x="620" y="70" width="220" height="30" as="geometry" />
        </mxCell>
        <mxCell id="jfcpHhcAErlLvr96TmVy-97" value="Alternativo" style="shape=umlFrame;whiteSpace=wrap;html=1;pointerEvents=0;recursiveResize=0;container=1;collapsible=0;width=170;" parent="jfcpHhcAErlLvr96TmVy-46" vertex="1">
          <mxGeometry x="30" y="190" width="1230" height="350" as="geometry" />
        </mxCell>
        <mxCell id="jfcpHhcAErlLvr96TmVy-98" value="Nao visivel" style="text;html=1;" parent="jfcpHhcAErlLvr96TmVy-97" vertex="1">
          <mxGeometry width="100" height="20" relative="1" as="geometry">
            <mxPoint x="20" y="40" as="offset" />
          </mxGeometry>
        </mxCell>
        <mxCell id="jfcpHhcAErlLvr96TmVy-99" value="Visivel" style="line;strokeWidth=1;dashed=1;labelPosition=center;verticalLabelPosition=bottom;align=left;verticalAlign=top;spacingLeft=20;spacingTop=15;html=1;whiteSpace=wrap;" parent="jfcpHhcAErlLvr96TmVy-97" vertex="1">
          <mxGeometry y="200" width="1230" height="10" as="geometry" />
        </mxCell>
        <mxCell id="jfcpHhcAErlLvr96TmVy-100" value="" style="html=1;points=[[0,0,0,0,5],[0,1,0,0,-5],[1,0,0,0,5],[1,1,0,0,-5]];perimeter=orthogonalPerimeter;outlineConnect=0;targetShapes=umlLifeline;portConstraint=eastwest;newEdgeStyle={&quot;curved&quot;:0,&quot;rounded&quot;:0};" parent="jfcpHhcAErlLvr96TmVy-97" vertex="1">
          <mxGeometry x="174" y="100" width="10" height="20" as="geometry" />
        </mxCell>
        <mxCell id="jfcpHhcAErlLvr96TmVy-111" value="" style="html=1;points=[[0,0,0,0,5],[0,1,0,0,-5],[1,0,0,0,5],[1,1,0,0,-5]];perimeter=orthogonalPerimeter;outlineConnect=0;targetShapes=umlLifeline;portConstraint=eastwest;newEdgeStyle={&quot;curved&quot;:0,&quot;rounded&quot;:0};" parent="jfcpHhcAErlLvr96TmVy-97" vertex="1">
          <mxGeometry x="1150" y="23" width="10" height="47" as="geometry" />
        </mxCell>
        <mxCell id="jfcpHhcAErlLvr96TmVy-114" value="" style="html=1;points=[[0,0,0,0,5],[0,1,0,0,-5],[1,0,0,0,5],[1,1,0,0,-5]];perimeter=orthogonalPerimeter;outlineConnect=0;targetShapes=umlLifeline;portConstraint=eastwest;newEdgeStyle={&quot;curved&quot;:0,&quot;rounded&quot;:0};" parent="jfcpHhcAErlLvr96TmVy-97" vertex="1">
          <mxGeometry x="860" y="21" width="10" height="69" as="geometry" />
        </mxCell>
        <mxCell id="jfcpHhcAErlLvr96TmVy-115" value="" style="html=1;verticalAlign=bottom;labelBackgroundColor=none;endArrow=open;endFill=0;dashed=1;rounded=0;" parent="jfcpHhcAErlLvr96TmVy-97" edge="1">
          <mxGeometry width="160" relative="1" as="geometry">
            <mxPoint x="870" y="30" as="sourcePoint" />
            <mxPoint x="1150" y="30" as="targetPoint" />
          </mxGeometry>
        </mxCell>
        <mxCell id="jfcpHhcAErlLvr96TmVy-117" value="Feedback guardado com sucesso" style="text;html=1;align=center;verticalAlign=middle;resizable=0;points=[];autosize=1;strokeColor=none;fillColor=none;" parent="jfcpHhcAErlLvr96TmVy-97" vertex="1">
          <mxGeometry x="890" y="40" width="200" height="30" as="geometry" />
        </mxCell>
        <mxCell id="jfcpHhcAErlLvr96TmVy-118" value="" style="html=1;verticalAlign=bottom;labelBackgroundColor=none;endArrow=open;endFill=0;dashed=1;rounded=0;exitX=0;exitY=1;exitDx=0;exitDy=-5;exitPerimeter=0;" parent="jfcpHhcAErlLvr96TmVy-97" edge="1">
          <mxGeometry width="160" relative="1" as="geometry">
            <mxPoint x="1150" y="65.58" as="sourcePoint" />
            <mxPoint x="870" y="65.58" as="targetPoint" />
          </mxGeometry>
        </mxCell>
        <mxCell id="jfcpHhcAErlLvr96TmVy-119" value="" style="html=1;verticalAlign=bottom;labelBackgroundColor=none;endArrow=open;endFill=0;dashed=1;rounded=0;exitX=0;exitY=1;exitDx=0;exitDy=-5;exitPerimeter=0;" parent="jfcpHhcAErlLvr96TmVy-97" edge="1">
          <mxGeometry width="160" relative="1" as="geometry">
            <mxPoint x="860" y="80" as="sourcePoint" />
            <mxPoint x="560" y="80" as="targetPoint" />
          </mxGeometry>
        </mxCell>
        <mxCell id="jfcpHhcAErlLvr96TmVy-120" value="Envia feedback a informar que foi criado com sucesso" style="text;html=1;align=center;verticalAlign=middle;resizable=0;points=[];autosize=1;strokeColor=none;fillColor=none;" parent="jfcpHhcAErlLvr96TmVy-97" vertex="1">
          <mxGeometry x="560" y="23" width="310" height="30" as="geometry" />
        </mxCell>
        <mxCell id="jfcpHhcAErlLvr96TmVy-123" value="" style="html=1;verticalAlign=bottom;labelBackgroundColor=none;endArrow=open;endFill=0;dashed=1;rounded=0;" parent="jfcpHhcAErlLvr96TmVy-97" edge="1">
          <mxGeometry width="160" relative="1" as="geometry">
            <mxPoint x="550" y="108" as="sourcePoint" />
            <mxPoint x="184" y="108.07999999999993" as="targetPoint" />
          </mxGeometry>
        </mxCell>
        <mxCell id="jfcpHhcAErlLvr96TmVy-124" value="Envia feedback a dizer que esta criado e não visivel" style="text;html=1;align=center;verticalAlign=middle;resizable=0;points=[];autosize=1;strokeColor=none;fillColor=none;" parent="jfcpHhcAErlLvr96TmVy-97" vertex="1">
          <mxGeometry x="220" y="67" width="300" height="30" as="geometry" />
        </mxCell>
        <mxCell id="jfcpHhcAErlLvr96TmVy-125" value="" style="html=1;points=[[0,0,0,0,5],[0,1,0,0,-5],[1,0,0,0,5],[1,1,0,0,-5]];perimeter=orthogonalPerimeter;outlineConnect=0;targetShapes=umlLifeline;portConstraint=eastwest;newEdgeStyle={&quot;curved&quot;:0,&quot;rounded&quot;:0};" parent="jfcpHhcAErlLvr96TmVy-97" vertex="1">
          <mxGeometry x="860" y="230" width="10" height="69" as="geometry" />
        </mxCell>
        <mxCell id="jfcpHhcAErlLvr96TmVy-126" value="" style="html=1;verticalAlign=bottom;labelBackgroundColor=none;endArrow=open;endFill=0;dashed=1;rounded=0;" parent="jfcpHhcAErlLvr96TmVy-97" edge="1">
          <mxGeometry width="160" relative="1" as="geometry">
            <mxPoint x="870" y="240" as="sourcePoint" />
            <mxPoint x="1150" y="240" as="targetPoint" />
          </mxGeometry>
        </mxCell>
        <mxCell id="jfcpHhcAErlLvr96TmVy-127" value="Guarda promoção" style="text;html=1;align=center;verticalAlign=middle;resizable=0;points=[];autosize=1;strokeColor=none;fillColor=none;" parent="jfcpHhcAErlLvr96TmVy-97" vertex="1">
          <mxGeometry x="930" y="210" width="120" height="30" as="geometry" />
        </mxCell>
        <mxCell id="jfcpHhcAErlLvr96TmVy-128" value="" style="html=1;verticalAlign=bottom;labelBackgroundColor=none;endArrow=open;endFill=0;dashed=1;rounded=0;exitX=0;exitY=1;exitDx=0;exitDy=-5;exitPerimeter=0;" parent="jfcpHhcAErlLvr96TmVy-97" edge="1">
          <mxGeometry width="160" relative="1" as="geometry">
            <mxPoint x="1150" y="280" as="sourcePoint" />
            <mxPoint x="870" y="280" as="targetPoint" />
          </mxGeometry>
        </mxCell>
        <mxCell id="jfcpHhcAErlLvr96TmVy-129" value="Feedback guardado com sucesso" style="text;html=1;align=center;verticalAlign=middle;resizable=0;points=[];autosize=1;strokeColor=none;fillColor=none;" parent="jfcpHhcAErlLvr96TmVy-97" vertex="1">
          <mxGeometry x="890" y="249.5" width="200" height="30" as="geometry" />
        </mxCell>
        <mxCell id="jfcpHhcAErlLvr96TmVy-130" value="" style="html=1;verticalAlign=bottom;labelBackgroundColor=none;endArrow=open;endFill=0;dashed=1;rounded=0;exitX=0;exitY=1;exitDx=0;exitDy=-5;exitPerimeter=0;" parent="jfcpHhcAErlLvr96TmVy-97" edge="1">
          <mxGeometry width="160" relative="1" as="geometry">
            <mxPoint x="860" y="290.00000000000006" as="sourcePoint" />
            <mxPoint x="560" y="290.00000000000006" as="targetPoint" />
          </mxGeometry>
        </mxCell>
        <mxCell id="jfcpHhcAErlLvr96TmVy-131" value="Envia feedback a informar que foi criado com sucesso" style="text;html=1;align=center;verticalAlign=middle;resizable=0;points=[];autosize=1;strokeColor=none;fillColor=none;" parent="jfcpHhcAErlLvr96TmVy-97" vertex="1">
          <mxGeometry x="550" y="258" width="310" height="30" as="geometry" />
        </mxCell>
        <mxCell id="jfcpHhcAErlLvr96TmVy-132" value="" style="html=1;points=[[0,0,0,0,5],[0,1,0,0,-5],[1,0,0,0,5],[1,1,0,0,-5]];perimeter=orthogonalPerimeter;outlineConnect=0;targetShapes=umlLifeline;portConstraint=eastwest;newEdgeStyle={&quot;curved&quot;:0,&quot;rounded&quot;:0};" parent="jfcpHhcAErlLvr96TmVy-97" vertex="1">
          <mxGeometry x="550" y="270" width="10" height="53" as="geometry" />
        </mxCell>
        <mxCell id="jfcpHhcAErlLvr96TmVy-133" value="" style="html=1;points=[[0,0,0,0,5],[0,1,0,0,-5],[1,0,0,0,5],[1,1,0,0,-5]];perimeter=orthogonalPerimeter;outlineConnect=0;targetShapes=umlLifeline;portConstraint=eastwest;newEdgeStyle={&quot;curved&quot;:0,&quot;rounded&quot;:0};" parent="jfcpHhcAErlLvr96TmVy-97" vertex="1">
          <mxGeometry x="174" y="303" width="10" height="20" as="geometry" />
        </mxCell>
        <mxCell id="jfcpHhcAErlLvr96TmVy-134" value="" style="html=1;verticalAlign=bottom;labelBackgroundColor=none;endArrow=open;endFill=0;dashed=1;rounded=0;" parent="jfcpHhcAErlLvr96TmVy-97" edge="1">
          <mxGeometry width="160" relative="1" as="geometry">
            <mxPoint x="550" y="312.5799999999999" as="sourcePoint" />
            <mxPoint x="184" y="312.65999999999985" as="targetPoint" />
          </mxGeometry>
        </mxCell>
        <mxCell id="jfcpHhcAErlLvr96TmVy-135" value="Envia feedback a fizer que esta criado e visivel" style="text;html=1;align=center;verticalAlign=middle;resizable=0;points=[];autosize=1;strokeColor=none;fillColor=none;" parent="jfcpHhcAErlLvr96TmVy-97" vertex="1">
          <mxGeometry x="230" y="273" width="270" height="30" as="geometry" />
        </mxCell>
        <mxCell id="jfcpHhcAErlLvr96TmVy-136" value="" style="html=1;points=[[0,0,0,0,5],[0,1,0,0,-5],[1,0,0,0,5],[1,1,0,0,-5]];perimeter=orthogonalPerimeter;outlineConnect=0;targetShapes=umlLifeline;portConstraint=eastwest;newEdgeStyle={&quot;curved&quot;:0,&quot;rounded&quot;:0};" parent="jfcpHhcAErlLvr96TmVy-97" vertex="1">
          <mxGeometry x="1150" y="232.5" width="10" height="47" as="geometry" />
        </mxCell>
        <mxCell id="jfcpHhcAErlLvr96TmVy-105" style="edgeStyle=orthogonalEdgeStyle;rounded=0;orthogonalLoop=1;jettySize=auto;html=1;curved=0;" parent="jfcpHhcAErlLvr96TmVy-46" edge="1">
          <mxGeometry relative="1" as="geometry">
            <mxPoint x="899.5" y="80" as="sourcePoint" />
            <mxPoint x="899.5" y="100.51999999999998" as="targetPoint" />
            <Array as="points">
              <mxPoint x="930.5" y="80" />
              <mxPoint x="930.5" y="101" />
            </Array>
          </mxGeometry>
        </mxCell>
        <mxCell id="jfcpHhcAErlLvr96TmVy-106" value="Verifica visibilidade" style="edgeLabel;html=1;align=center;verticalAlign=middle;resizable=0;points=[];" parent="jfcpHhcAErlLvr96TmVy-105" vertex="1" connectable="0">
          <mxGeometry x="0.0273" relative="1" as="geometry">
            <mxPoint x="49" y="-1" as="offset" />
          </mxGeometry>
        </mxCell>
        <mxCell id="jfcpHhcAErlLvr96TmVy-59" value="" style="html=1;verticalAlign=bottom;labelBackgroundColor=none;endArrow=open;endFill=0;dashed=1;rounded=0;" parent="jfcpHhcAErlLvr96TmVy-1" target="jfcpHhcAErlLvr96TmVy-5" edge="1">
          <mxGeometry width="160" relative="1" as="geometry">
            <mxPoint x="230" y="210" as="sourcePoint" />
            <mxPoint x="390" y="210" as="targetPoint" />
          </mxGeometry>
        </mxCell>
        <mxCell id="jfcpHhcAErlLvr96TmVy-78" value="" style="html=1;verticalAlign=bottom;labelBackgroundColor=none;endArrow=open;endFill=0;dashed=1;rounded=0;" parent="jfcpHhcAErlLvr96TmVy-1" edge="1">
          <mxGeometry width="160" relative="1" as="geometry">
            <mxPoint x="230" y="280" as="sourcePoint" />
            <mxPoint x="600" y="280" as="targetPoint" />
          </mxGeometry>
        </mxCell>
        <mxCell id="jfcpHhcAErlLvr96TmVy-79" value="" style="html=1;verticalAlign=bottom;labelBackgroundColor=none;endArrow=open;endFill=0;dashed=1;rounded=0;" parent="jfcpHhcAErlLvr96TmVy-1" edge="1">
          <mxGeometry width="160" relative="1" as="geometry">
            <mxPoint x="599" y="249.99999999999977" as="sourcePoint" />
            <mxPoint x="230" y="249.99999999999977" as="targetPoint" />
          </mxGeometry>
        </mxCell>
        <mxCell id="jfcpHhcAErlLvr96TmVy-81" value="" style="html=1;verticalAlign=bottom;labelBackgroundColor=none;endArrow=open;endFill=0;dashed=1;rounded=0;" parent="jfcpHhcAErlLvr96TmVy-1" edge="1">
          <mxGeometry width="160" relative="1" as="geometry">
            <mxPoint x="610" y="288.9999999999998" as="sourcePoint" />
            <mxPoint x="910" y="289" as="targetPoint" />
          </mxGeometry>
        </mxCell>
        <mxCell id="jfcpHhcAErlLvr96TmVy-83" value="" style="html=1;verticalAlign=bottom;endArrow=none;curved=0;rounded=0;startArrow=none;startFill=0;endFill=0;dashed=1;exitX=0.615;exitY=1.001;exitDx=0;exitDy=0;exitPerimeter=0;" parent="jfcpHhcAErlLvr96TmVy-1" source="jfcpHhcAErlLvr96TmVy-86" target="jfcpHhcAErlLvr96TmVy-82" edge="1">
          <mxGeometry width="80" relative="1" as="geometry">
            <mxPoint x="2386" y="2131" as="sourcePoint" />
            <mxPoint x="2384" y="1230" as="targetPoint" />
            <mxPoint as="offset" />
          </mxGeometry>
        </mxCell>
        <mxCell id="jfcpHhcAErlLvr96TmVy-82" value="" style="html=1;points=[[0,0,0,0,5],[0,1,0,0,-5],[1,0,0,0,5],[1,1,0,0,-5]];perimeter=orthogonalPerimeter;outlineConnect=0;targetShapes=umlLifeline;portConstraint=eastwest;newEdgeStyle={&quot;curved&quot;:0,&quot;rounded&quot;:0};" parent="jfcpHhcAErlLvr96TmVy-1" vertex="1">
          <mxGeometry x="910" y="280" width="10" height="40" as="geometry" />
        </mxCell>
        <mxCell id="jfcpHhcAErlLvr96TmVy-58" value="Envia dados para sistema verificar" style="text;html=1;align=center;verticalAlign=middle;resizable=0;points=[];autosize=1;strokeColor=none;fillColor=none;" parent="jfcpHhcAErlLvr96TmVy-1" vertex="1">
          <mxGeometry x="630" y="259" width="210" height="30" as="geometry" />
        </mxCell>
        <mxCell id="jfcpHhcAErlLvr96TmVy-84" style="edgeStyle=orthogonalEdgeStyle;rounded=0;orthogonalLoop=1;jettySize=auto;html=1;curved=0;" parent="jfcpHhcAErlLvr96TmVy-1" edge="1">
          <mxGeometry relative="1" as="geometry">
            <mxPoint x="920" y="299.48" as="sourcePoint" />
            <mxPoint x="920" y="320" as="targetPoint" />
            <Array as="points">
              <mxPoint x="951" y="299.48" />
              <mxPoint x="951" y="320.48" />
            </Array>
          </mxGeometry>
        </mxCell>
        <mxCell id="jfcpHhcAErlLvr96TmVy-85" value="Verifica dados" style="edgeLabel;html=1;align=center;verticalAlign=middle;resizable=0;points=[];" parent="jfcpHhcAErlLvr96TmVy-84" vertex="1" connectable="0">
          <mxGeometry x="0.0273" relative="1" as="geometry">
            <mxPoint x="44" y="-1" as="offset" />
          </mxGeometry>
        </mxCell>
        <mxCell id="jfcpHhcAErlLvr96TmVy-86" value="" style="html=1;points=[[0,0,0,0,5],[0,1,0,0,-5],[1,0,0,0,5],[1,1,0,0,-5]];perimeter=orthogonalPerimeter;outlineConnect=0;targetShapes=umlLifeline;portConstraint=eastwest;newEdgeStyle={&quot;curved&quot;:0,&quot;rounded&quot;:0};" parent="jfcpHhcAErlLvr96TmVy-1" vertex="1">
          <mxGeometry x="910" y="350" width="10" height="90" as="geometry" />
        </mxCell>
        <mxCell id="jfcpHhcAErlLvr96TmVy-27" value="Retorna pagina de criação de anuncio" style="text;html=1;align=center;verticalAlign=middle;resizable=0;points=[];autosize=1;strokeColor=none;fillColor=none;" parent="1" vertex="1">
          <mxGeometry x="1736" y="1278" width="230" height="30" as="geometry" />
        </mxCell>
        <mxCell id="jfcpHhcAErlLvr96TmVy-116" value="Guarda promoção" style="text;html=1;align=center;verticalAlign=middle;resizable=0;points=[];autosize=1;strokeColor=none;fillColor=none;" parent="1" vertex="1">
          <mxGeometry x="2430" y="1578" width="120" height="30" as="geometry" />
        </mxCell>
      </root>
    </mxGraphModel>
  </diagram>
</mxfile>
